<?xml version="1.0" encoding="UTF-8" standalone="no"?>
<!-- Created with Inkscape (http://www.inkscape.org/) -->

<svg
   width="23.07254mm"
   height="23.072542mm"
   viewBox="0 0 23.07254 23.072542"
   version="1.1"
   id="svg1"
   xml:space="preserve"
   xmlns:xlink="http://www.w3.org/1999/xlink"
   xmlns="http://www.w3.org/2000/svg"
   xmlns:svg="http://www.w3.org/2000/svg"><defs
     id="defs1"><linearGradient
       id="swatch2"><stop
         style="stop-color:#000000;stop-opacity:1;"
         offset="0"
         id="stop2" /></linearGradient><linearGradient
       xlink:href="#swatch2"
       id="linearGradient2"
       x1="97.922401"
       y1="170.88438"
       x2="120.62594"
       y2="170.88438"
       gradientUnits="userSpaceOnUse"
       gradientTransform="translate(0,0.52916663)" /></defs><g
     id="layer1"
     transform="translate(-97.737891,-159.87727)"><path
       style="fill:#1a1a1a;fill-opacity:1"
       d="m 103.24266,177.87632 c -0.4173,-0.0557 -0.66926,-0.32676 -0.66926,-0.72004 0,-0.47958 0.29524,-1.49265 0.65755,-2.25627 0.73373,-1.54647 1.90826,-2.73577 3.37517,-3.41764 l 0.38082,-0.17701 0.44348,0.19902 c 1.18256,0.5307 2.50786,0.5307 3.69043,0 l 0.44348,-0.19902 0.3808,0.17701 c 1.78015,0.82747 3.14306,2.42198 3.77064,4.41137 0.10852,0.34401 0.21648,0.83081 0.23992,1.08179 0.0407,0.43623 0.0327,0.46625 -0.1829,0.68183 -0.16068,0.16068 -0.29595,0.2257 -0.47054,0.22619 -0.13477,3.7e-4 -2.83017,0.009 -5.98979,0.0184 -3.15963,0.01 -5.89103,-0.002 -6.0698,-0.0256 z m 5.08322,-7.10683 c -0.58492,-0.15729 -1.09355,-0.45755 -1.55246,-0.91647 -1.33286,-1.33284 -1.38442,-3.42869 -0.11899,-4.83615 1.96008,-2.18007 5.59064,-1.09939 6.08141,1.81021 0.29237,1.73337 -0.86615,3.49397 -2.60353,3.95658 -0.48406,0.12889 -1.29819,0.1225 -1.80643,-0.0142 z"
       id="path2" /><circle
       style="fill:none;stroke:url(#linearGradient2);stroke-width:0.369;stroke-dasharray:none"
       id="path1"
       cx="109.27417"
       cy="171.41354"
       r="11.35177" /></g></svg>
