<?xml version="1.0" encoding="UTF-8" standalone="no"?>
<!-- Created with Inkscape (http://www.inkscape.org/) -->

<svg
   width="68.733978mm"
   height="19.507765mm"
   viewBox="0 0 68.733978 19.507765"
   version="1.1"
   id="svg1"
   sodipodi:docname="AnemosParts_Logo.svg"
   inkscape:version="1.4.2 (ebf0e940d0, 2025-05-08)"
   xmlns:inkscape="http://www.inkscape.org/namespaces/inkscape"
   xmlns:sodipodi="http://sodipodi.sourceforge.net/DTD/sodipodi-0.dtd"
   xmlns="http://www.w3.org/2000/svg"
   xmlns:svg="http://www.w3.org/2000/svg">
  <sodipodi:namedview
     id="namedview1"
     pagecolor="#ffffff"
     bordercolor="#000000"
     borderopacity="0.25"
     inkscape:showpageshadow="2"
     inkscape:pageopacity="0.0"
     inkscape:pagecheckerboard="0"
     inkscape:deskcolor="#d1d1d1"
     inkscape:document-units="mm"
     inkscape:zoom="6.5734466"
     inkscape:cx="126.11345"
     inkscape:cy="33.544047"
     inkscape:window-width="2560"
     inkscape:window-height="1316"
     inkscape:window-x="1920"
     inkscape:window-y="32"
     inkscape:window-maximized="1"
     inkscape:current-layer="layer1" />
  <defs
     id="defs1" />
  <g
     id="layer1"
     transform="translate(-26.22604,-86.944112)">
    <rect
       style="fill:none;stroke-width:0.189098"
       id="rect1"
       width="68.733978"
       height="19.507763"
       x="26.226042"
       y="86.944115" />
    <path
       style="font-size:12.7365px;font-family:'Vanilla Pancake';-inkscape-font-specification:'Vanilla Pancake';fill:#1a1a1a;stroke-width:1.06137"
       d="m 37.06157,98.635603 q 0.118161,0.199007 0.05597,0.422891 -0.06219,0.223884 -0.261198,0.342045 -0.199008,0.118161 -0.429111,0.06219 -0.223884,-0.06219 -0.342044,-0.261198 -0.429111,-0.74006 -0.572148,-2.16421 -0.205227,0.453987 -0.422891,0.827126 -0.242541,0.422892 -0.485082,0.665433 -0.242541,0.236321 -0.559709,0.236321 -0.516177,0 -0.864441,-0.652994 -0.273635,-0.534833 -0.273635,-1.150514 0,-0.640556 0.354482,-1.318427 0.354483,-0.684089 0.895535,-1.094543 0.609462,-0.460205 1.305989,-0.441548 0.03731,-0.0995 0.07463,-0.217665 0.03731,-0.118161 0.04353,-0.136818 0,-0.0062 0,-0.0062 l 0.0062,-0.01244 q 0.0062,-0.0062 0.0062,-0.01244 0,-0.01244 0.0062,-0.01866 0,-0.01244 0.0062,-0.01866 0,-0.0062 0.0062,-0.01244 0.0062,-0.01244 0.01244,-0.01866 0.0062,-0.0062 0.0062,-0.01244 0,-0.0062 0.0062,-0.01244 0.0062,-0.0062 0.0062,-0.01244 0,-0.0062 0.0062,-0.01244 l 0.01866,-0.01866 0.0062,-0.01244 q 0.0062,-0.0062 0.0062,-0.01244 l 0.01866,-0.01866 0.01866,-0.01866 0.0062,-0.01244 q 0.0062,-0.01244 0.01244,-0.01244 0.0062,0 0.0062,-0.0062 l 0.01244,-0.0062 q 0.0062,-0.0062 0.02488,-0.01866 l 0.01866,-0.01866 q 0.0062,0 0.01244,-0.0062 0.0062,-0.0062 0.01244,-0.0062 0.0062,0 0.01244,-0.0062 0.0062,-0.0062 0.01244,-0.0062 0.0062,0 0.0062,-0.0062 l 0.01244,-0.0062 0.01244,-0.0062 q 0.0062,-0.0062 0.01244,-0.0062 0.01244,-0.01244 0.02488,-0.01244 0.0062,-0.0062 0.0311,-0.0062 0.0062,0 0.01866,-0.0062 l 0.01244,-0.0062 q 0.01244,-0.0062 0.01866,-0.0062 h 0.02488 0.01244 q 0.01244,-0.0062 0.01866,-0.0062 h 0.02488 l 0.01244,-0.0062 h 0.01244 0.0311 q 0.0062,0 0.01244,0.0062 0.0062,0 0.01244,0 h 0.03731 0.01244 l 0.0062,0.0062 q 0.0062,0 0.01244,0.0062 0.01244,0 0.01866,0 0.0062,0 0.01244,0.0062 0.01244,0 0.01866,0 h 0.0062 q 0.0062,0 0.0062,0.0062 0,0 0.0062,0 0.0062,0.0062 0.01244,0.0062 0.01244,0 0.01866,0.0062 0.01866,0 0.02488,0.0062 0.0062,0 0.01244,0.0062 0.01244,0.0062 0.01866,0.01244 0.0062,0.0062 0.0062,0.0062 0.01244,0 0.01244,0.0062 0,0.0062 0.01244,0.0062 0.01244,0 0.01244,0.0062 0.0062,0.0062 0.02488,0.01866 l 0.0062,0.0062 q 0.0062,0.0062 0.01244,0.0062 0.0062,0 0.01244,0.0062 0.0062,0.0062 0.01244,0.01244 l 0.01866,0.01866 0.01866,0.01866 0.01866,0.01866 q 0.0062,0.0062 0.01866,0.02488 0.0062,0 0.0062,0.0062 0,0.0062 0.0062,0.01244 0.0062,0.0062 0.0062,0.01244 0,0.0062 0.0062,0.01244 0.0062,0.0062 0.01866,0.02488 0,0.0062 0.0062,0.0062 l 0.0062,0.01244 0.0062,0.01244 0.0062,0.01244 q 0.0062,0.0062 0.0062,0.02488 0.0062,0.0062 0.0062,0.01866 0,0.0062 0.0062,0.01244 0,0.0062 0.0062,0.01866 0,0.0062 0,0.01866 0.0062,0.0062 0.0062,0.01244 0,0.0062 0.0062,0.02488 v 0.01244 q 0.0062,0.01244 0.0062,0.01866 v 0.02488 0.02488 0.03731 0.01866 q 0,0.0062 -0.0062,0.01866 0,0.01244 0,0.01866 v 0.01244 q -0.09329,0.572147 -0.111942,1.436588 -0.01244,0.86444 0.105723,1.803508 0.12438,0.932849 0.391797,1.393055 z M 34.841389,95.74377 q 0.111942,-0.273635 0.161694,-0.404234 -0.07463,0.03731 -0.167913,0.111942 -0.348264,0.267416 -0.572148,0.715184 -0.223883,0.447767 -0.223883,0.796031 0,0.192789 0.04975,0.391797 0.30473,-0.516177 0.752498,-1.61072 z m 7.182938,2.388094 q 0.0995,0.211446 0.01866,0.429111 -0.08085,0.217664 -0.292293,0.317168 -0.211445,0.0995 -0.42911,0.01866 -0.217665,-0.08085 -0.317169,-0.292292 -0.167913,-0.360702 -0.261198,-0.764937 -0.09329,-0.404234 -0.111942,-0.839564 -0.01866,-0.435329 -0.01244,-0.708965 0.0062,-0.279855 0.03731,-0.690309 -0.217664,0.317169 -0.410453,0.640557 -0.410454,0.708965 -1.05101,2.046049 -0.261198,0.547271 -0.37314,0.752498 l -0.0062,0.01244 q 0,0.0062 -0.0062,0.01244 -0.0062,0.0062 -0.01244,0.01866 -0.0062,0.0062 -0.0062,0.01244 v 0.0062 l -0.0062,0.0062 q -0.0062,0.0062 -0.01866,0.01866 -0.0062,0.01244 -0.01244,0.01866 h -0.0062 q -0.0062,0 -0.0062,0.0062 -0.0062,0.01244 -0.02488,0.03109 l -0.0062,0.0062 q -0.0062,0.0062 -0.02488,0.01866 -0.01244,0.0062 -0.01866,0.01244 v 0.0062 q -0.0062,0.0062 -0.04353,0.02488 l -0.0062,0.0062 q -0.0062,0 -0.01244,0.0062 l -0.01244,0.0062 h -0.0062 l -0.0062,0.0062 -0.0062,0.0062 q -0.0062,0 -0.01244,0 -0.0062,0 -0.0062,0.0062 0,0.0062 -0.0062,0.0062 h -0.01244 q -0.11816,0.04353 -0.205226,0.04353 -0.01244,0 -0.03731,0 -0.02488,-0.0062 -0.03731,-0.0062 -0.01866,0 -0.06841,-0.01244 -0.0062,0 -0.0062,0 l -0.01244,-0.0062 q -0.0062,-0.0062 -0.02488,-0.01244 -0.01244,-0.0062 -0.01866,-0.0062 -0.0062,0 -0.01866,-0.0062 -0.01244,-0.0062 -0.01866,-0.0062 -0.0062,0 -0.01244,-0.0062 -0.0062,-0.0062 -0.01244,-0.0062 h -0.0062 l -0.01244,-0.01244 q -0.0062,-0.0062 -0.02488,-0.01244 -0.01244,-0.01244 -0.01866,-0.01244 -0.0062,0 -0.0062,-0.0062 l -0.01244,-0.0062 -0.0311,-0.03109 q -0.0062,-0.0062 -0.0062,-0.0062 -0.01244,0 -0.01244,-0.0062 -0.0311,-0.03109 -0.08085,-0.105723 l -0.0062,-0.0062 q 0,-0.0062 0,-0.0062 0,-0.01244 -0.0062,-0.01244 -0.01244,-0.01244 -0.01244,-0.01866 -0.603242,-1.082105 0.0062,-4.863253 v -0.02488 q 0.04975,-0.31095 0.354483,-0.43533 0.310949,-0.12438 0.559709,0.08707 0.24876,0.211446 0.199008,0.528615 l -0.0062,0.02488 q -0.211446,1.250017 -0.273636,2.462721 0.366921,-0.733841 0.702747,-1.29355 0.4913,-0.80847 0.889316,-1.169171 0.404234,-0.366921 0.814688,-0.366921 0.31095,0 0.516177,0.223884 0.192788,0.205227 0.223883,0.559709 0.0311,0.354483 -0.02488,0.827126 -0.03731,0.516177 -0.04975,0.839565 -0.01244,0.317168 0.04975,0.827126 0.06841,0.503738 0.236322,0.876878 z m 2.723919,-0.379359 q 0.292293,-0.149255 0.565929,0.01866 0.12438,0.08085 0.192789,0.217665 0.07463,0.136818 0.06841,0.286074 -0.01244,0.317169 -0.304731,0.472643 -0.453987,0.242541 -0.982601,0.254979 -0.485082,0 -0.895535,-0.24876 -0.453987,-0.273635 -0.708966,-0.783593 -0.254978,-0.509957 -0.254978,-1.138076 0,-0.702746 0.286073,-1.393054 0.286074,-0.690309 0.802251,-1.156733 0.516176,-0.466425 1.10698,-0.466425 0.478863,0 0.796032,0.385578 0.317168,0.379358 0.317168,0.963944 0,0.497519 -0.230102,0.945287 -0.230103,0.447768 -0.646776,0.758717 -0.541052,0.416673 -1.225142,0.472644 0.111942,0.304731 0.342045,0.447767 0.323388,0.192789 0.771155,-0.03731 z m -0.174131,-2.804766 q -0.242541,0.04353 -0.522396,0.410454 -0.279855,0.36692 -0.410454,0.852002 0.286074,-0.04353 0.541053,-0.242541 0.422891,-0.31095 0.422891,-0.80225 0,-0.130599 -0.03109,-0.217665 z m 8.041158,3.333381 q 0.105723,0.205227 0.03731,0.42911 -0.06841,0.223884 -0.273636,0.329607 -0.205226,0.105723 -0.42911,0.03731 -0.223884,-0.07463 -0.329607,-0.279855 -0.217665,-0.416672 -0.31095,-1.075886 -0.08706,-0.665432 -0.08085,-1.125637 0.0062,-0.466425 0.04353,-1.23758 0,-0.03109 0,-0.0995 0.0062,-0.06841 0.0062,-0.105723 -0.292293,0.460205 -0.640557,1.088324 -0.379359,0.659213 -0.453986,0.777374 -0.111942,0.174132 -0.18657,0.267417 -0.06841,0.09329 -0.230103,0.199008 -0.155475,0.105723 -0.329607,0.105723 -0.509957,0 -0.74006,-0.708966 -0.07463,-0.24876 -0.143037,-0.565928 -0.0311,0.07463 -0.0995,0.230103 -0.06219,0.155474 -0.08085,0.199007 -0.248759,0.609462 -0.634337,1.722662 -0.118161,0.329606 -0.136818,0.379358 -0.05597,0.149256 -0.180351,0.254979 v 0.0062 q -0.01866,0.01866 -0.06841,0.04353 -0.130599,0.07463 -0.279854,0.07463 h -0.04975 -0.0062 q -0.01866,-0.0062 -0.04975,-0.01244 -0.0311,-0.0062 -0.04975,-0.0062 v -0.0062 q -0.0062,0 -0.02488,0 -0.01866,-0.0062 -0.02488,-0.01244 v 0 q -0.0062,-0.0062 -0.02488,-0.01244 -0.01244,-0.0062 -0.02488,-0.01244 h -0.0062 q -0.0062,-0.0062 -0.02488,-0.01244 -0.01244,-0.01244 -0.01866,-0.01244 v -0.0062 q -0.03731,-0.01866 -0.04353,-0.02488 l -0.0062,-0.0062 q -0.01244,-0.0062 -0.03731,-0.0311 v -0.0062 q -0.0062,-0.0062 -0.01866,-0.01244 -0.01244,-0.01244 -0.01866,-0.01866 l -0.0062,-0.01244 q -0.0062,-0.0062 -0.01244,-0.01244 -0.0062,-0.01244 -0.01244,-0.01866 0,-0.0062 -0.0062,-0.0062 0,0 0,-0.0062 0,-0.0062 -0.01244,-0.01866 -0.01244,-0.01244 -0.01244,-0.01866 v 0 q -0.31095,-0.559709 -0.348264,-2.587101 -0.02488,-1.374398 0.03731,-2.338342 0.01244,-0.230103 0.18657,-0.379359 0.180351,-0.155474 0.416673,-0.143037 0.230103,0.01244 0.379358,0.18657 0.155475,0.174132 0.143037,0.410454 -0.05597,0.858221 -0.03731,2.16421 0.01244,-0.02488 0.0311,-0.08085 0.02488,-0.05597 0.03731,-0.08707 0.354483,-0.852002 0.634338,-1.218923 0.279854,-0.373139 0.652994,-0.373139 0.497519,0 0.721403,0.690308 0.05597,0.180351 0.155475,0.61568 0.01244,-0.01866 0.0311,-0.05597 0.02488,-0.03731 0.0311,-0.05597 0.37314,-0.659213 0.609461,-1.038572 0.242541,-0.379358 0.49752,-0.696527 0.254979,-0.323388 0.472644,-0.453987 0.223883,-0.130598 0.460205,-0.130598 0.286074,0 0.478863,0.205226 0.205226,0.211446 0.24254,0.652995 0.03731,0.441548 -0.01866,1.181609 -0.02488,0.503738 -0.0311,0.789812 -0.0062,0.279855 0,0.74006 0.01244,0.460206 0.07463,0.796031 0.06219,0.329607 0.174132,0.547272 z m 2.935365,-3.874433 q 0.31095,0 0.55349,0.167912 0.24876,0.167913 0.379359,0.43533 0.136818,0.267417 0.199008,0.553491 0.06841,0.286073 0.06841,0.565928 0,0.715184 -0.279855,1.349522 -0.273636,0.634337 -0.74006,1.013696 -0.460206,0.379358 -0.98882,0.379358 -0.37314,0 -0.708966,-0.199007 -0.329606,-0.199008 -0.565928,-0.565929 -0.398016,-0.621899 -0.398016,-1.430369 0.01244,-0.833345 0.323388,-1.623157 0.37314,-0.951506 0.907973,-1.069667 0.273636,-0.06219 0.478863,0.118161 0.211445,0.180351 0.199007,0.460205 0.273636,-0.155474 0.572148,-0.155474 z m -0.808469,3.339599 q 0.267416,0 0.572147,-0.485081 0.31095,-0.491301 0.31095,-1.131857 0,-0.323388 -0.12438,-0.572147 -0.06219,0.04353 -0.0995,0.08706 -0.02488,0.167913 -0.143037,0.292293 -0.118161,0.12438 -0.279855,0.167913 -0.161693,0.04353 -0.323387,-0.01244 -0.155475,-0.06219 -0.261198,-0.199008 -0.01866,-0.01866 -0.06219,-0.111942 -0.12438,0.429111 -0.136818,0.895535 0,0.429111 0.174132,0.752499 0.180351,0.317168 0.37314,0.317168 z m 4.689123,-1.125638 q 0.273636,0.118161 0.404235,0.180351 0.130598,0.06219 0.354482,0.180351 0.230103,0.111942 0.335826,0.205227 0.111942,0.09328 0.242541,0.223884 0.130599,0.130599 0.180351,0.279854 0.05597,0.149256 0.05597,0.323388 0,0.478863 -0.42911,0.814688 -0.342045,0.273636 -0.932849,0.429111 -0.584586,0.149256 -1.069667,0.149256 -0.167913,0 -0.31095,-0.02488 -0.223884,-0.04975 -0.348264,-0.24876 -0.124379,-0.199008 -0.07463,-0.422892 0.04975,-0.223883 0.24254,-0.348263 0.192789,-0.12438 0.422892,-0.08085 0.192789,0.03109 0.609461,-0.04975 0.416673,-0.08707 0.646776,-0.205227 -0.211446,-0.130599 -0.777375,-0.37314 -0.827126,-0.354482 -1.194046,-0.603242 -0.777375,-0.528614 -0.777375,-1.212704 0,-0.516176 0.37314,-1.026134 0.379359,-0.516176 0.976382,-0.839564 0.597023,-0.323388 1.206485,-0.323388 0.534833,0 0.808469,0.391797 0.12438,0.174132 0.167913,0.391797 0.04353,0.217664 0,0.466424 -0.03731,0.24876 -0.07463,0.379359 -0.03731,0.130599 -0.105723,0.335825 -0.0062,0.03731 -0.01866,0.05597 -0.06219,0.223884 -0.267417,0.342045 -0.199007,0.111942 -0.422891,0.04975 -0.223884,-0.06219 -0.342045,-0.261198 -0.118161,-0.205227 -0.05597,-0.42911 0.02488,-0.07463 0.04353,-0.12438 0.06841,-0.18657 0.12438,-0.460206 -0.466425,0.06219 -0.876878,0.429111 -0.410454,0.36692 -0.410454,0.621899 0,0.08085 0.279855,0.273636 0.273636,0.180351 1.013696,0.509957 z m 8.432955,-1.815946 q 0.07463,0.174132 0.02488,0.354483 -0.04353,0.180351 -0.18657,0.304731 -0.143036,0.11816 -0.335825,0.124379 -0.18657,0.0062 -0.342045,-0.0995 -0.354483,0.317168 -0.733841,1.038572 -0.634338,1.218922 -0.783593,2.562225 v 0.0062 q 0,0.0062 -0.0062,0.01866 0,0.0062 0,0.01244 0,0.0062 -0.0062,0.01244 0,0.0062 0,0.01244 0,0.0062 -0.0062,0.01244 0,0.0062 0,0.01244 0,0.0062 -0.0062,0.01866 0,0.01244 0,0.01244 l -0.0062,0.0062 q 0,0.0062 0,0.01244 0,0.0062 -0.0062,0.01866 -0.0062,0.0062 -0.0062,0.01244 v 0.0062 q -0.0062,0.0062 -0.0062,0.01244 -0.0062,0.0062 -0.01244,0.01866 -0.0062,0.0062 -0.0062,0.01244 0,0.0062 -0.0062,0.01244 -0.01244,0.02488 -0.01866,0.03109 0,0.0062 -0.0062,0.0062 l -0.0062,0.01244 -0.01866,0.01866 -0.01866,0.01866 -0.01866,0.01866 -0.01866,0.01866 -0.01866,0.01866 -0.01866,0.01866 -0.0062,0.0062 q -0.0062,0.0062 -0.01244,0.0062 -0.0062,0 -0.01244,0.0062 -0.0062,0.0062 -0.01244,0.01244 -0.0062,0.0062 -0.01244,0.0062 -0.01244,0 -0.01244,0.0062 -0.0062,0.0062 -0.01244,0.0062 -0.0062,0 -0.01244,0.0062 -0.01244,0.0062 -0.03109,0.01244 -0.01244,0.0062 -0.01866,0.0062 -0.0062,0 -0.02488,0.0062 -0.01244,0.0062 -0.02488,0.01244 -0.02488,0.01244 -0.04353,0.01244 h -0.01244 q -0.0062,0 -0.01866,0.0062 -0.0062,0 -0.01244,0 h -0.01244 -0.04975 -0.05597 -0.0062 -0.0062 q -0.0062,0 -0.01866,0 -0.01244,-0.0062 -0.01866,-0.0062 l -0.0062,-0.0062 q -0.0062,0 -0.01244,0 -0.02488,0 -0.03731,-0.0062 -0.0062,0 -0.0062,0 0,-0.0062 -0.0062,-0.0062 -0.0062,0 -0.01866,-0.0062 -0.01244,-0.0062 -0.01866,-0.0062 -0.0062,0 -0.01244,-0.0062 -0.0062,-0.0062 -0.01244,-0.0062 -0.0062,0 -0.01866,-0.0062 -0.0062,-0.0062 -0.01244,-0.0062 l -0.0062,-0.0062 q -0.0062,-0.0062 -0.01244,-0.0062 -0.0062,0 -0.01244,-0.0062 -0.0062,-0.0062 -0.01244,-0.01244 -0.0062,-0.0062 -0.0062,-0.0062 -0.01244,0 -0.01244,-0.0062 -0.0062,-0.0062 -0.02488,-0.01866 l -0.01244,-0.01244 q -0.01244,-0.0062 -0.0311,-0.02488 l -0.0062,-0.0062 q -0.03731,-0.0311 -0.06219,-0.08085 l -0.0062,-0.0062 q -0.0062,-0.0062 -0.01244,-0.01866 -0.0062,-0.01244 -0.01244,-0.01866 0,-0.0062 -0.0062,-0.0062 0,0 0,-0.0062 0,-0.0062 -0.0062,-0.01244 -0.0062,-0.01244 -0.0062,-0.01866 v -0.0062 q -0.0062,-0.0062 -0.0062,-0.01244 -0.01244,-0.01244 -0.01244,-0.02488 0,-0.0062 -0.0062,-0.01244 0,-0.0062 0,-0.01244 v -0.0062 q -0.534834,-1.958983 -0.06841,-4.825939 0,-0.01866 0.0062,-0.04353 0.01244,-0.03109 0.01244,-0.04353 0.03731,-0.317169 0.335825,-0.447768 0.298512,-0.130599 0.55971,0.06841 0.261198,0.199008 0.217665,0.522396 0,0.03109 -0.01866,0.124379 -0.111942,0.708966 -0.167913,1.480121 0.385577,-0.74006 0.827126,-1.206485 0.441549,-0.466424 0.858221,-0.528614 0.292293,-0.04353 0.528615,0.0995 0.24254,0.136818 0.36692,0.422891 z m 4.197822,3.830901 q 0.118161,0.199007 0.05597,0.422891 -0.06219,0.223884 -0.261197,0.342045 -0.199008,0.118161 -0.429111,0.06219 -0.223884,-0.06219 -0.342045,-0.261198 -0.42911,-0.74006 -0.572147,-2.16421 -0.205227,0.453987 -0.422892,0.827126 -0.24254,0.422892 -0.485081,0.665433 -0.242541,0.236321 -0.55971,0.236321 -0.516176,0 -0.86444,-0.652994 -0.273636,-0.534833 -0.273636,-1.150514 0,-0.640556 0.354483,-1.318427 0.354483,-0.684089 0.895535,-1.094543 0.609462,-0.460205 1.305989,-0.441548 0.03731,-0.0995 0.07463,-0.217665 0.03731,-0.118161 0.04353,-0.136818 0,-0.0062 0,-0.0062 l 0.0062,-0.01244 q 0.0062,-0.0062 0.0062,-0.01244 0,-0.01244 0.0062,-0.01866 0,-0.01244 0.0062,-0.01866 0,-0.0062 0.0062,-0.01244 0.0062,-0.01244 0.01244,-0.01866 0.0062,-0.0062 0.0062,-0.01244 0,-0.0062 0.0062,-0.01244 0.0062,-0.0062 0.0062,-0.01244 0,-0.0062 0.0062,-0.01244 l 0.01866,-0.01866 0.0062,-0.01244 q 0.0062,-0.0062 0.0062,-0.01244 l 0.01866,-0.01866 0.01866,-0.01866 0.0062,-0.01244 q 0.0062,-0.01244 0.01244,-0.01244 0.0062,0 0.0062,-0.0062 l 0.01244,-0.0062 q 0.0062,-0.0062 0.02488,-0.01866 l 0.01866,-0.01866 q 0.0062,0 0.01244,-0.0062 0.0062,-0.0062 0.01244,-0.0062 0.0062,0 0.01244,-0.0062 0.0062,-0.0062 0.01244,-0.0062 0.0062,0 0.0062,-0.0062 l 0.01244,-0.0062 0.01244,-0.0062 q 0.0062,-0.0062 0.01244,-0.0062 0.01244,-0.01244 0.02487,-0.01244 0.0062,-0.0062 0.0311,-0.0062 0.0062,0 0.01866,-0.0062 l 0.01244,-0.0062 q 0.01244,-0.0062 0.01866,-0.0062 h 0.02488 0.01244 q 0.01244,-0.0062 0.01866,-0.0062 h 0.02488 l 0.01244,-0.0062 h 0.01244 0.0311 q 0.0062,0 0.01244,0.0062 0.0062,0 0.01244,0 h 0.03731 0.01244 l 0.0062,0.0062 q 0.0062,0 0.01244,0.0062 0.01244,0 0.01866,0 0.0062,0 0.01244,0.0062 0.01244,0 0.01866,0 h 0.0062 q 0.0062,0 0.0062,0.0062 0,0 0.0062,0 0.0062,0.0062 0.01244,0.0062 0.01244,0 0.01866,0.0062 0.01866,0 0.02488,0.0062 0.0062,0 0.01244,0.0062 0.01244,0.0062 0.01866,0.01244 0.0062,0.0062 0.0062,0.0062 0.01244,0 0.01244,0.0062 0,0.0062 0.01244,0.0062 0.01244,0 0.01244,0.0062 0.0062,0.0062 0.02488,0.01866 l 0.0062,0.0062 q 0.0062,0.0062 0.01244,0.0062 0.0062,0 0.01244,0.0062 0.0062,0.0062 0.01244,0.01244 l 0.01866,0.01866 0.01866,0.01866 0.01866,0.01866 q 0.0062,0.0062 0.01866,0.02488 0.0062,0 0.0062,0.0062 0,0.0062 0.0062,0.01244 0.0062,0.0062 0.0062,0.01244 0,0.0062 0.0062,0.01244 0.0062,0.0062 0.01866,0.02488 0,0.0062 0.0062,0.0062 l 0.0062,0.01244 0.0062,0.01244 0.0062,0.01244 q 0.0062,0.0062 0.0062,0.02488 0.0062,0.0062 0.0062,0.01866 0,0.0062 0.0062,0.01244 0,0.0062 0.0062,0.01866 0,0.0062 0,0.01866 0.0062,0.0062 0.0062,0.01244 0,0.0062 0.0062,0.02488 v 0.01244 q 0.0062,0.01244 0.0062,0.01866 v 0.02488 0.02488 0.03731 0.01866 q 0,0.0062 -0.0062,0.01866 0,0.01244 0,0.01866 v 0.01244 q -0.09328,0.572147 -0.111942,1.436588 -0.01244,0.86444 0.105723,1.803508 0.12438,0.932849 0.391796,1.393055 z m -2.22018,-2.891833 q 0.111941,-0.273635 0.161693,-0.404234 -0.07463,0.03731 -0.167912,0.111942 -0.348264,0.267416 -0.572148,0.715184 -0.223884,0.447767 -0.223884,0.796031 0,0.192789 0.04975,0.391797 0.304731,-0.516177 0.752499,-1.61072 z m 6.505065,2.213962 q 0.12438,0.192789 0.08085,0.416673 -0.03731,0.223884 -0.223884,0.354482 l -0.01244,0.0062 q -0.01244,0.01244 -0.01866,0.01866 -0.752498,0.640557 -1.567186,0.640557 -0.98882,0 -1.616939,-0.746279 -0.621899,-0.752499 -0.621899,-1.940327 0,-0.572147 0.174132,-1.200265 0.174132,-0.634338 0.472643,-1.181609 0.304731,-0.553491 0.771156,-0.914192 0.466424,-0.360702 0.995039,-0.360702 0.61568,0 0.951506,0.472643 0.223884,0.317169 0.261197,0.80847 0.04353,0.485081 -0.01244,0.764936 -0.04975,0.279855 -0.07463,0.335826 -0.07463,0.217664 -0.286074,0.323387 -0.211446,0.0995 -0.429111,0.02488 -0.217665,-0.07463 -0.323387,-0.279854 -0.0995,-0.211446 -0.03109,-0.429111 0.05597,-0.199008 0.04975,-0.503739 -0.0062,-0.30473 -0.07463,-0.385577 -0.0062,0 -0.01866,0 -0.0062,-0.0062 -0.01244,-0.0062 -0.192789,0 -0.416673,0.217665 -0.223884,0.211445 -0.416673,0.578366 -0.211445,0.391797 -0.335825,0.86444 -0.118161,0.472644 -0.118161,0.870659 0,0.708966 0.298512,1.138076 0.30473,0.422892 0.814688,0.422892 0.410453,0 0.839564,-0.37314 0.08707,-0.07463 0.118161,-0.09329 0.199008,-0.130599 0.422891,-0.08085 0.242541,0.04975 0.360702,0.236322 z m 1.952767,0.286074 q 0.143037,0.18657 0.105723,0.416673 -0.0311,0.223883 -0.217665,0.36692 -0.18657,0.143037 -0.422892,0.111942 -0.230103,-0.03731 -0.36692,-0.223884 -0.360702,-0.478862 -0.509958,-1.430368 -0.143037,-0.951506 -0.105723,-1.741319 0.03731,-0.796031 0.155475,-1.138076 0.08085,-0.217664 0.286074,-0.317168 0.211445,-0.105723 0.42911,-0.0311 0.217665,0.07463 0.317169,0.286073 0.105723,0.211446 0.0311,0.429111 -0.03731,0.12438 -0.07463,0.565929 -0.03109,0.435329 -0.0062,0.976382 0.06219,1.287331 0.379359,1.72888 z m -0.80847,-4.440362 q -0.236321,0 -0.404234,-0.161694 -0.161694,-0.167912 -0.161694,-0.398015 0,-0.230103 0.161694,-0.391797 0.161694,-0.161694 0.391796,-0.161694 0.230103,0 0.391797,0.161694 0.161694,0.155475 0.167913,0.385578 0.0062,0.230103 -0.155475,0.398015 -0.161694,0.161694 -0.391797,0.167913 z m 5.833415,4.32842 q 0.0995,0.211446 0.01866,0.429111 -0.08085,0.217664 -0.292292,0.317168 -0.211446,0.0995 -0.429111,0.01866 -0.217665,-0.08085 -0.317169,-0.292292 -0.167913,-0.360702 -0.261197,-0.764937 -0.09328,-0.404234 -0.111942,-0.839564 -0.01866,-0.435329 -0.01244,-0.708965 0.0062,-0.279855 0.03731,-0.690309 -0.217665,0.317169 -0.410454,0.640557 -0.410454,0.708965 -1.05101,2.046049 -0.261198,0.547271 -0.37314,0.752498 l -0.0062,0.01244 q 0,0.0062 -0.0062,0.01244 -0.0062,0.0062 -0.01244,0.01866 -0.0062,0.0062 -0.0062,0.01244 v 0.0062 l -0.0062,0.0062 q -0.0062,0.0062 -0.01866,0.01866 -0.0062,0.01244 -0.01244,0.01866 h -0.0062 q -0.0062,0 -0.0062,0.0062 -0.0062,0.01244 -0.02488,0.03109 l -0.0062,0.0062 q -0.0062,0.0062 -0.02488,0.01866 -0.01244,0.0062 -0.01866,0.01244 v 0.0062 q -0.0062,0.0062 -0.04353,0.02488 l -0.0062,0.0062 q -0.0062,0 -0.01244,0.0062 l -0.01244,0.0062 h -0.0062 l -0.0062,0.0062 -0.0062,0.0062 q -0.0062,0 -0.01244,0 -0.0062,0 -0.0062,0.0062 0,0.0062 -0.0062,0.0062 h -0.01244 q -0.118161,0.04353 -0.205227,0.04353 -0.01244,0 -0.03731,0 -0.02488,-0.0062 -0.03731,-0.0062 -0.01866,0 -0.06841,-0.01244 -0.0062,0 -0.0062,0 l -0.01244,-0.0062 q -0.0062,-0.0062 -0.02488,-0.01244 -0.01244,-0.0062 -0.01866,-0.0062 -0.0062,0 -0.01866,-0.0062 -0.01244,-0.0062 -0.01866,-0.0062 -0.0062,0 -0.01244,-0.0062 -0.0062,-0.0062 -0.01244,-0.0062 h -0.0062 l -0.01244,-0.01244 q -0.0062,-0.0062 -0.02488,-0.01244 -0.01244,-0.01244 -0.01866,-0.01244 -0.0062,0 -0.0062,-0.0062 l -0.01244,-0.0062 -0.03109,-0.03109 q -0.0062,-0.0062 -0.0062,-0.0062 -0.01244,0 -0.01244,-0.0062 -0.0311,-0.03109 -0.08085,-0.105723 l -0.0062,-0.0062 q 0,-0.0062 0,-0.0062 0,-0.01244 -0.0062,-0.01244 -0.01244,-0.01244 -0.01244,-0.01866 -0.603242,-1.082105 0.0062,-4.863253 v -0.02488 q 0.04975,-0.31095 0.354483,-0.43533 0.31095,-0.12438 0.559709,0.08707 0.24876,0.211446 0.199008,0.528615 l -0.0062,0.02488 q -0.211446,1.250017 -0.273635,2.462721 0.36692,-0.733841 0.702746,-1.29355 0.4913,-0.80847 0.889316,-1.169171 0.404235,-0.366921 0.814688,-0.366921 0.31095,0 0.516177,0.223884 0.192789,0.205227 0.223884,0.559709 0.0311,0.354483 -0.02488,0.827126 -0.03731,0.516177 -0.04975,0.839565 -0.01244,0.317168 0.04975,0.827126 0.06841,0.503738 0.236321,0.876878 z m 4.881908,-3.034869 q 0.03109,0.416673 0.03109,1.343303 v 0.06841 q 0,1.554748 -0.478862,2.90427 -0.130599,0.36692 -0.298512,0.684093 -0.167913,0.32338 -0.422892,0.64677 -0.24876,0.32339 -0.603242,0.55349 -0.348264,0.2301 -0.758717,0.31095 -0.230103,0.0435 -0.422892,-0.0871 -0.192789,-0.12438 -0.242541,-0.35449 -0.04353,-0.2301 0.08085,-0.42289 0.130599,-0.18657 0.360702,-0.23632 0.410453,-0.0808 0.74006,-0.50374 0.329607,-0.42289 0.522396,-1.019914 0.192788,-0.597023 0.292292,-1.23758 0.105723,-0.640556 0.105723,-1.237579 v -0.06841 q 0,-0.516177 -0.0062,-0.715185 -0.883097,1.467683 -1.386836,2.058487 -0.497519,0.584586 -0.982601,0.584586 -0.167912,0 -0.342044,-0.08085 -0.174132,-0.08085 -0.342045,-0.242541 -0.161694,-0.161694 -0.267417,-0.453986 -0.0995,-0.298512 -0.0995,-0.677871 0,-0.907973 0.547272,-1.822165 0.547271,-0.920411 1.29977,-1.262456 0.752498,-0.342045 1.461463,0.02488 l 0.01244,-0.01244 v -0.0062 h 0.0062 q 0.0062,0 0.0062,-0.0062 0,-0.0062 0.0062,-0.0062 0.0062,0 0.01244,-0.0062 l 0.01866,-0.01866 q 0.0062,-0.0062 0.02488,-0.01866 0,-0.0062 0.0062,-0.0062 0.0062,0 0.01244,-0.0062 0.0062,-0.0062 0.01866,-0.0062 0.01244,0 0.01244,-0.0062 0,-0.0062 0.0062,-0.0062 0.0062,0 0.01244,-0.0062 0.0062,-0.0062 0.01244,-0.0062 0.01244,0 0.01866,-0.0062 l 0.0062,-0.0062 q 0.0062,0 0.01244,0 0.02488,-0.01244 0.0311,-0.01244 h 0.01244 l 0.01244,-0.0062 q 0.0062,0 0.01244,0 0.01244,-0.0062 0.01866,-0.0062 0.0062,0 0.0062,0 l 0.01244,-0.0062 q 0.0062,0 0.01244,0 0.01244,-0.0062 0.01866,-0.0062 h 0.02488 0.03109 0.01866 q 0.534833,0.01866 0.696527,0.696528 0.08085,0.391796 0.0995,0.715184 z m -1.996297,-0.06841 q 0.01866,-0.02488 0.06219,-0.105723 0.04975,-0.08085 0.07463,-0.118161 -0.06219,-0.01244 -0.09328,-0.01244 -0.118161,0 -0.254979,0.06219 -0.447767,0.205227 -0.814688,0.845783 -0.366921,0.640557 -0.366921,1.212704 0,0.118161 0.0062,0.174132 0.286074,-0.329607 0.472644,-0.603242 0.261198,-0.37314 0.914192,-1.455245 z"
       id="text1"
       aria-label="anemos racing" />
    <path
       style="font-size:8.4727px;font-family:'Vanilla Pancake';-inkscape-font-specification:'Vanilla Pancake';fill:#ff0000;stroke-width:0.706058"
       d="m 64.888919,112.80885 q 0.144797,0.302 0.157208,0.6371 0,0.4344 -0.206853,0.83155 -0.206853,0.39716 -0.579189,0.68262 -0.318553,0.24408 -0.674341,0.33924 -0.35165,0.091 -0.666066,0.0166 -0.161346,0.90601 -0.144797,1.80375 v 0.008 0.0248 0.0165 q 0,0.004 -0.0041,0.008 0,0.008 0,0.0124 0,0.004 0,0.008 l -0.0041,0.008 -0.0041,0.008 v 0.008 q 0,0.0124 -0.0041,0.0207 0,0.004 -0.0041,0.008 0,0.004 0,0.008 l -0.0083,0.0166 q 0,0.008 -0.0083,0.0165 l -0.0083,0.0166 q 0,0.004 -0.0041,0.004 l -0.0041,0.008 -0.0041,0.008 q -0.0041,0.008 -0.0083,0.008 -0.0041,0 -0.0041,0.008 0,0.004 -0.0041,0.008 l -0.01241,0.0124 q 0,0.004 -0.0041,0.008 -0.0041,0.004 -0.0083,0.008 l -0.0083,0.008 -0.01655,0.0166 q -0.0041,0.004 -0.0041,0.004 -0.0083,0 -0.0083,0.004 0,0.004 -0.0083,0.008 l -0.0083,0.004 -0.0041,0.004 q -0.0041,0.004 -0.0083,0.004 -0.0041,0 -0.0083,0.004 -0.0041,0.004 -0.0083,0.008 -0.0041,0.004 -0.0083,0.004 -0.0083,0.004 -0.01241,0.004 -0.0083,0.008 -0.01241,0.008 -0.0041,0.004 -0.01241,0.004 -0.0083,0 -0.01241,0.004 -0.0041,0 -0.0041,0 0,0.004 -0.0041,0.004 -0.0041,0 -0.0083,0.004 l -0.0083,0.004 q -0.0041,0 -0.01241,0 -0.0083,0.004 -0.0083,0.004 l -0.0041,0.004 q -0.0041,0 -0.0083,0 -0.0041,0 -0.01241,0 -0.0041,0.004 -0.0083,0.004 h -0.01241 -0.02896 l -0.0041,0.004 h -0.0041 -0.0041 q -0.0041,0 -0.01655,-0.004 -0.01241,0 -0.02069,0 h -0.0083 q -0.0041,0 -0.01241,-0.004 -0.0083,0 -0.01241,0 h -0.0041 l -0.0041,-0.004 q -0.0041,0 -0.01241,-0.004 -0.0083,0 -0.01241,0 h -0.0041 l -0.0041,-0.004 q -0.0041,-0.004 -0.01655,-0.004 -0.0083,0 -0.01241,-0.004 -0.0041,0 -0.01241,-0.004 l -0.0083,-0.004 -0.0083,-0.004 q -0.0041,0 -0.01241,-0.008 -0.0041,0 -0.01241,-0.004 l -0.0083,-0.004 -0.0083,-0.008 q -0.0331,-0.0248 -0.04964,-0.0414 l -0.0041,-0.004 -0.02069,-0.0207 q -0.0041,0 -0.0041,-0.004 -0.0041,-0.004 -0.0083,-0.0124 -0.0041,-0.004 -0.0083,-0.008 l -0.0041,-0.004 v -0.004 q 0,-0.004 -0.0041,-0.0124 -0.0041,-0.004 -0.0083,-0.008 0,-0.004 -0.0041,-0.004 0,0 0,-0.004 -0.0041,-0.004 -0.01241,-0.0166 -0.0041,-0.008 -0.0041,-0.0124 v -0.004 q -0.0041,-0.004 -0.0041,-0.008 0,-0.004 -0.0041,-0.0124 l -0.0041,-0.008 v -0.004 q -0.202716,-0.57092 -0.297868,-1.53899 -0.09515,-0.96807 -0.07447,-1.87409 0.02069,-0.91015 0.124112,-1.49762 0.01655,-0.0993 0.08274,-0.17789 0.06619,-0.0786 0.161346,-0.1117 0.202716,-0.0745 0.368198,0.0662 0.16962,0.14066 0.128249,0.35165 -0.128249,0.70744 -0.119975,1.74171 0.318554,-1.00531 0.790179,-1.48935 0.426117,-0.43439 0.930839,-0.43439 0.08274,0 0.165482,0.0207 0.08274,0.0207 0.190305,0.0703 0.107563,0.0496 0.21099,0.16548 0.103426,0.1117 0.182031,0.27305 z m -1.079773,1.55553 q 0.103426,-0.0786 0.198579,-0.17789 0.09515,-0.10343 0.190304,-0.31028 0.09929,-0.20685 0.09929,-0.43026 0,-0.10342 -0.05378,-0.24408 -0.05378,-0.1448 -0.103426,-0.17376 -0.194442,0 -0.393021,0.20685 -0.384747,0.39302 -0.657793,1.34869 0.148934,0.0372 0.343376,-0.0207 0.194442,-0.0579 0.376473,-0.19858 z m 4.157746,0.88947 q 0.0786,0.13239 0.03723,0.28132 -0.04137,0.14893 -0.173756,0.22754 -0.132386,0.0786 -0.285457,0.0414 -0.148935,-0.0414 -0.227539,-0.17376 -0.285457,-0.49231 -0.380609,-1.4397 -0.136523,0.30201 -0.28132,0.55023 -0.161346,0.28132 -0.322691,0.44267 -0.161346,0.15721 -0.372336,0.15721 -0.343376,0 -0.575051,-0.43439 -0.182031,-0.35579 -0.182031,-0.76536 0,-0.42612 0.235813,-0.87706 0.235812,-0.45507 0.595736,-0.72812 0.405432,-0.30614 0.868783,-0.29373 0.02482,-0.0662 0.04964,-0.1448 0.02482,-0.0786 0.02896,-0.091 0,-0.004 0,-0.004 l 0.0041,-0.008 q 0.0041,-0.004 0.0041,-0.008 0,-0.008 0.0041,-0.0124 0,-0.008 0.0041,-0.0124 0,-0.004 0.0041,-0.008 0.0041,-0.008 0.0083,-0.0124 0.0041,-0.004 0.0041,-0.008 0,-0.004 0.0041,-0.008 0.0041,-0.004 0.0041,-0.008 0,-0.004 0.0041,-0.008 l 0.01241,-0.0124 0.0041,-0.008 q 0.0041,-0.004 0.0041,-0.008 l 0.01241,-0.0124 0.01241,-0.0124 0.0041,-0.008 q 0.0041,-0.008 0.0083,-0.008 0.0041,0 0.0041,-0.004 l 0.0083,-0.004 q 0.0041,-0.004 0.01655,-0.0124 l 0.01241,-0.0124 q 0.0041,0 0.0083,-0.004 0.0041,-0.004 0.0083,-0.004 0.0041,0 0.0083,-0.004 0.0041,-0.004 0.0083,-0.004 0.0041,0 0.0041,-0.004 l 0.0083,-0.004 0.0083,-0.004 q 0.0041,-0.004 0.0083,-0.004 0.0083,-0.008 0.01655,-0.008 0.0041,-0.004 0.02069,-0.004 0.0041,0 0.01241,-0.004 l 0.0083,-0.004 q 0.0083,-0.004 0.01241,-0.004 h 0.01655 0.0083 q 0.0083,-0.004 0.01241,-0.004 h 0.01655 l 0.0083,-0.004 h 0.0083 0.02069 q 0.0041,0 0.0083,0.004 0.0041,0 0.0083,0 h 0.02482 0.0083 l 0.0041,0.004 q 0.0041,0 0.0083,0.004 0.0083,0 0.01241,0 0.0041,0 0.0083,0.004 0.0083,0 0.01241,0 h 0.0041 q 0.0041,0 0.0041,0.004 0,0 0.0041,0 0.0041,0.004 0.0083,0.004 0.0083,0 0.01241,0.004 0.01241,0 0.01655,0.004 0.0041,0 0.0083,0.004 0.0083,0.004 0.01241,0.008 0.0041,0.004 0.0041,0.004 0.0083,0 0.0083,0.004 0,0.004 0.0083,0.004 0.0083,0 0.0083,0.004 0.0041,0.004 0.01655,0.0124 l 0.0041,0.004 q 0.0041,0.004 0.0083,0.004 0.0041,0 0.0083,0.004 0.0041,0.004 0.0083,0.008 l 0.01241,0.0124 0.01241,0.0124 0.01241,0.0124 q 0.0041,0.004 0.01241,0.0165 0.0041,0 0.0041,0.004 0,0.004 0.0041,0.008 0.0041,0.004 0.0041,0.008 0,0.004 0.0041,0.008 0.0041,0.004 0.01241,0.0166 0,0.004 0.0041,0.004 l 0.0041,0.008 0.0041,0.008 0.0041,0.008 q 0.0041,0.004 0.0041,0.0165 0.0041,0.004 0.0041,0.0124 0,0.004 0.0041,0.008 0,0.004 0.0041,0.0124 0,0.004 0,0.0124 0.0041,0.004 0.0041,0.008 0,0.004 0.0041,0.0165 v 0.008 q 0.0041,0.008 0.0041,0.0124 v 0.0166 0.0165 0.0248 0.0124 q 0,0.004 -0.0041,0.0124 0,0.008 0,0.0124 v 0.008 q -0.06206,0.38061 -0.07447,0.95566 -0.0083,0.57505 0.07033,1.19975 0.08274,0.62056 0.260635,0.9267 z m -1.476931,-1.92373 q 0.07447,-0.18203 0.107564,-0.26891 -0.04964,0.0248 -0.111701,0.0745 -0.231675,0.1779 -0.38061,0.47577 -0.148934,0.29786 -0.148934,0.52954 0,0.12825 0.0331,0.26063 0.202716,-0.34337 0.500584,-1.07149 z m 4.290132,-0.6247 q 0.04964,0.11584 0.01655,0.23581 -0.02896,0.11998 -0.124112,0.20272 -0.09515,0.0786 -0.223401,0.0827 -0.124112,0.004 -0.227538,-0.0662 -0.235813,0.21099 -0.488174,0.69089 -0.42198,0.81086 -0.521269,1.70446 v 0.004 q 0,0.004 -0.0041,0.0124 0,0.004 0,0.008 0,0.004 -0.0041,0.008 0,0.004 0,0.008 0,0.004 -0.0041,0.008 0,0.004 0,0.008 0,0.004 -0.0041,0.0124 0,0.008 0,0.008 l -0.0041,0.004 q 0,0.004 0,0.008 0,0.004 -0.0041,0.0124 -0.0041,0.004 -0.0041,0.008 v 0.004 q -0.0041,0.004 -0.0041,0.008 -0.0041,0.004 -0.0083,0.0124 -0.0041,0.004 -0.0041,0.008 0,0.004 -0.0041,0.008 -0.0083,0.0165 -0.01241,0.0207 0,0.004 -0.0041,0.004 l -0.0041,0.008 -0.01241,0.0124 -0.01241,0.0124 -0.01241,0.0124 -0.01241,0.0124 -0.01241,0.0124 -0.01241,0.0124 -0.0041,0.004 q -0.0041,0.004 -0.0083,0.004 -0.0041,0 -0.0083,0.004 -0.0041,0.004 -0.0083,0.008 -0.0041,0.004 -0.0083,0.004 -0.0083,0 -0.0083,0.004 -0.0041,0.004 -0.0083,0.004 -0.0041,0 -0.0083,0.004 -0.0083,0.004 -0.02069,0.008 -0.0083,0.004 -0.01241,0.004 -0.0041,0 -0.01655,0.004 -0.0083,0.004 -0.01655,0.008 -0.01655,0.008 -0.02896,0.008 h -0.0083 q -0.0041,0 -0.01241,0.004 -0.0041,0 -0.0083,0 h -0.0083 -0.0331 -0.03723 -0.0041 -0.0041 q -0.0041,0 -0.01241,0 -0.0083,-0.004 -0.01241,-0.004 l -0.0041,-0.004 q -0.0041,0 -0.0083,0 -0.01655,0 -0.02482,-0.004 -0.0041,0 -0.0041,0 0,-0.004 -0.0041,-0.004 -0.0041,0 -0.01241,-0.004 -0.0083,-0.004 -0.01241,-0.004 -0.0041,0 -0.0083,-0.004 -0.0041,-0.004 -0.0083,-0.004 -0.0041,0 -0.01241,-0.004 -0.0041,-0.004 -0.0083,-0.004 l -0.0041,-0.004 q -0.0041,-0.004 -0.0083,-0.004 -0.0041,0 -0.0083,-0.004 -0.0041,-0.004 -0.0083,-0.008 -0.0041,-0.004 -0.0041,-0.004 -0.0083,0 -0.0083,-0.004 -0.0041,-0.004 -0.01655,-0.0124 l -0.0083,-0.008 q -0.0083,-0.004 -0.02069,-0.0166 l -0.0041,-0.004 q -0.02482,-0.0207 -0.04137,-0.0538 l -0.0041,-0.004 q -0.0041,-0.004 -0.0083,-0.0124 -0.0041,-0.008 -0.0083,-0.0124 0,-0.004 -0.0041,-0.004 0,0 0,-0.004 0,-0.004 -0.0041,-0.008 -0.0041,-0.008 -0.0041,-0.0124 v -0.004 q -0.0041,-0.004 -0.0041,-0.008 -0.0083,-0.008 -0.0083,-0.0165 0,-0.004 -0.0041,-0.008 0,-0.004 0,-0.008 v -0.004 q -0.355787,-1.30317 -0.04551,-3.21036 0,-0.0124 0.0041,-0.029 0.0083,-0.0207 0.0083,-0.029 0.02482,-0.21099 0.223401,-0.29787 0.198579,-0.0869 0.372335,0.0455 0.173757,0.13239 0.144797,0.34752 0,0.0207 -0.01241,0.0827 -0.07447,0.47162 -0.1117,0.98462 0.256497,-0.49231 0.550229,-0.80259 0.293731,-0.31028 0.570914,-0.35165 0.194442,-0.029 0.35165,0.0662 0.161346,0.091 0.244087,0.28132 z m 2.966272,1.77894 q 0.140661,0.0703 0.190305,0.21512 0.04964,0.1448 -0.01655,0.28546 -0.09929,0.21513 -0.273046,0.40543 -0.347513,0.38475 -0.798453,0.38475 -0.128249,0 -0.248223,-0.029 -0.115838,-0.029 -0.252361,-0.1117 -0.136523,-0.0869 -0.252361,-0.21927 -0.115837,-0.13652 -0.227538,-0.36406 -0.107564,-0.22753 -0.182031,-0.5254 -0.157208,-0.62884 -0.157208,-1.35282 0,-0.27305 0.01655,-0.68675 -0.148934,0.0248 -0.256498,0.0496 -0.14066,0.0496 -0.277183,-0.0124 -0.136523,-0.0621 -0.194441,-0.20272 -0.05378,-0.14066 0,-0.27718 0.05792,-0.14066 0.194441,-0.20272 0.103427,-0.0455 0.5916,-0.12411 0.02896,-0.26891 0.08274,-0.60815 0.0041,-0.0248 0.0083,-0.0579 0.0083,-0.0372 0.0083,-0.0455 0.01655,-0.15307 0.136523,-0.24823 0.124111,-0.0993 0.28132,-0.0786 0.153071,0.0166 0.248223,0.14066 0.09929,0.11998 0.0786,0.27718 0,0.0165 -0.0083,0.0621 -0.0083,0.0414 -0.01241,0.0703 -0.0041,0.0166 -0.02482,0.14893 -0.01655,0.13239 -0.02896,0.23168 0.231676,-0.029 0.376473,-0.029 0.322691,0 0.52127,0.12411 0.198578,0.11998 0.219264,0.32683 0.01655,0.15307 -0.0786,0.28546 -0.09102,0.12825 -0.293732,0.17375 -0.115837,0.0248 -0.223401,-0.0165 -0.107564,-0.0455 -0.169619,-0.14479 -0.186168,0.008 -0.421981,0.0414 -0.02482,0.47162 -0.02482,0.80259 0,0.64952 0.132386,1.17079 0.0331,0.14066 0.08274,0.27718 0.04964,0.13238 0.144797,0.26891 0.09929,0.13652 0.21099,0.13652 0.115838,0 0.223402,-0.11997 0.107563,-0.11998 0.173756,-0.24823 0.07033,-0.14066 0.215127,-0.1903 0.144797,-0.0496 0.285457,0.0165 z m 1.625866,-0.57092 q 0.18203,0.0786 0.268909,0.11998 0.08688,0.0414 0.235812,0.11997 0.153071,0.0745 0.223401,0.13652 0.07447,0.0621 0.161346,0.14894 0.08688,0.0869 0.119974,0.18617 0.03723,0.0993 0.03723,0.21512 0,0.31856 -0.285457,0.54196 -0.227539,0.18203 -0.620559,0.28546 -0.388884,0.0993 -0.711575,0.0993 -0.1117,0 -0.206853,-0.0165 -0.148934,-0.0331 -0.231675,-0.16549 -0.08274,-0.13238 -0.04964,-0.28132 0.0331,-0.14893 0.161345,-0.23167 0.128249,-0.0827 0.281321,-0.0538 0.128248,0.0207 0.405431,-0.0331 0.277184,-0.0579 0.430255,-0.13652 -0.14066,-0.0869 -0.517133,-0.24823 -0.550229,-0.23581 -0.794315,-0.40129 -0.517133,-0.35165 -0.517133,-0.80673 0,-0.34337 0.248224,-0.68261 0.25236,-0.34338 0.649518,-0.55851 0.397158,-0.21512 0.80259,-0.21512 0.355787,0 0.537818,0.26063 0.08274,0.11584 0.1117,0.26064 0.02896,0.14479 0,0.31028 -0.02482,0.16548 -0.04964,0.25236 -0.02482,0.0869 -0.07033,0.2234 -0.0041,0.0248 -0.01241,0.0372 -0.04137,0.14894 -0.177893,0.22754 -0.132386,0.0745 -0.28132,0.0331 -0.148934,-0.0414 -0.227539,-0.17376 -0.0786,-0.13652 -0.03723,-0.28546 0.01655,-0.0496 0.02896,-0.0827 0.04551,-0.12411 0.08274,-0.30614 -0.31028,0.0414 -0.583326,0.28546 -0.273046,0.24408 -0.273046,0.4137 0,0.0538 0.186168,0.18203 0.18203,0.11998 0.674341,0.33924 z"
       id="text1-8"
       transform="rotate(-9.7290007)"
       aria-label="parts" />
  </g>
</svg>
